<svg width="110" height="89" viewBox="0 0 110 89" fill="none" xmlns="http://www.w3.org/2000/svg">
<path d="M0.462772 55.7537C0.0213197 55.4742 -0.111116 55.0376 0.0948951 54.5618C0.197901 54.3166 10.6015 29.816 13.2305 21.5265C15.8842 13.1634 18.0228 3.29453 18.0424 3.19643C18.1699 2.61273 18.6114 2.32824 19.1901 2.45577C19.7738 2.5833 20.0583 3.02475 19.9308 3.60845C19.9112 3.70655 17.753 13.6588 15.0699 22.1151C13.1766 28.0943 7.47205 41.9608 4.2053 49.7745C8.16366 45.1393 14.5402 37.409 20.3772 29.1685C23.6586 24.5382 34.8028 8.09655 34.9156 7.93468C35.2198 7.48832 35.6759 7.37061 36.1566 7.61586C36.6373 7.86111 36.809 8.30256 36.6226 8.80778C36.6226 8.80778 34.8028 13.7717 31.7421 22.1543C29.4466 28.4426 23.5801 42.9713 20.5047 50.5397C25.3312 45.3551 34.1848 35.5058 40.6643 26.3629C46.982 17.4504 58.2243 2.2939 63.0754 0.106261C63.6198 -0.13899 64.1103 0.0474037 64.3556 0.591861C64.6008 1.13632 64.4145 1.62682 63.87 1.87207C60.6817 3.30924 52.3824 13.1732 42.2438 27.4812C32.831 40.764 18.5034 55.4693 18.3563 55.6164C18.0031 55.9794 17.5617 56.0284 17.1349 55.7489C16.7082 55.4693 16.5807 55.0474 16.772 54.5716C16.8701 54.3264 26.7831 30.1054 29.9272 21.4873L31.9824 15.4148C28.9021 19.9373 23.5164 28.0796 21.9566 30.282C12.5537 43.5501 1.80184 55.4693 1.69884 55.587C1.47811 55.8273 1.29662 55.9058 0.982703 55.9058C0.771787 55.9058 0.649163 55.8715 0.462772 55.7537Z" fill="white"/>
<path d="M38.9672 57.0143C38.0451 57.0143 37.2161 56.9064 36.4215 56.6857C33.8317 55.9646 32.2424 54.0468 32.2424 51.7414C32.2424 47.4397 37.1033 41.4752 41.8465 41.4752C44.0096 41.4752 45.5449 42.8143 45.6331 44.6978V44.8204C45.6331 46.3508 44.6669 48.3913 41.714 49.9266C39.806 50.9174 36.8532 51.9425 34.1897 51.8788C34.2192 53.6691 35.8476 54.5177 36.9414 54.8218C42.1555 56.2737 47.3303 51.8444 49.5375 48.6464C49.876 48.1559 50.3959 48.0627 50.8864 48.4011C51.3769 48.7396 51.4701 49.2546 51.1317 49.7451C47.7227 54.6746 43.1218 57.0094 38.9721 57.0094L38.9672 57.0143ZM34.4987 49.9462C36.6864 49.9462 39.3008 48.9995 40.8164 48.2098C43.1218 47.013 43.6957 45.3453 43.6957 44.791C43.6858 44.5605 43.6319 43.4127 41.8416 43.4127C38.8152 43.4127 35.4111 47.0277 34.4987 49.9462Z" fill="white"/>
<path d="M50.5134 54.7875C49.1793 52.5655 49.2087 48.7298 50.6655 43.1086C51.725 39.0374 53.53 34.309 55.286 31.0275C61.7067 19.0053 71.0704 8.86663 74.4499 9.58276C75.2249 9.74463 75.6566 10.2548 75.7253 11.1279C76.1079 16.028 69.0054 25.9361 62.1874 35.0006C61.7852 35.5352 61.4173 36.0208 61.1034 36.4476C57.248 41.6224 54.3394 45.1883 51.6465 48.043C51.3375 50.4024 51.4307 52.5557 52.1713 53.7966C52.4411 54.243 53.0444 54.9003 54.2805 54.9003C58.3664 54.9003 61.4124 50.059 61.947 49.1418C62.2512 48.6268 62.7564 48.4943 63.2714 48.7984C63.7864 49.1025 63.9189 49.6078 63.6147 50.1228C62.6583 51.7562 59.2836 56.8377 54.2805 56.8377C52.5441 56.8377 51.3473 56.1854 50.5134 54.7973V54.7875ZM54.2363 42.1325C55.8158 40.2048 57.557 37.9583 59.5485 35.2851C59.8673 34.8584 60.2303 34.3727 60.6374 33.8332C64.2573 29.0214 73.9104 16.1849 73.7878 11.5595C72.3359 11.6674 64.3113 18.2205 56.9881 31.935C55.6098 34.515 53.0739 41.4164 52.0193 44.8989L54.2314 42.1325H54.2363Z" fill="white"/>
<path d="M82.6317 48.7886C83.1467 49.0928 83.2791 49.598 82.975 50.113C79.7132 55.6606 76.8732 56.7838 74.8817 56.7838C74.4207 56.7838 74.0479 56.725 73.7045 56.6318C72.0172 56.1756 70.8645 54.8463 70.8547 53.4239C70.8547 53.3503 70.8547 53.2718 70.8694 53.1835C68.7701 55.587 66.5089 56.8623 64.5763 56.8623C63.9926 56.8623 63.5266 56.7593 63.041 56.5141C62.163 56.0677 60.461 54.7335 61.6235 50.4711C62.2121 48.3079 63.2715 46.4146 64.9344 43.452L65.7486 41.9952C66.038 41.4752 66.5432 41.3281 67.0631 41.6175C67.5831 41.9069 67.7302 42.4121 67.4408 42.932L66.6217 44.3986C65.0766 47.1553 64.0171 49.0437 63.4923 50.9812C62.9135 53.1051 63.35 54.4981 63.919 54.7875C64.7872 55.2338 67.4016 54.4686 69.8933 51.3392C71.4973 49.3331 74.612 44.173 75.4605 42.1227C75.6862 41.5733 76.1718 41.3722 76.726 41.5979C77.2754 41.8284 77.4765 42.3091 77.2509 42.8634C77.2312 42.9173 77.2067 42.9713 77.1822 43.0301C77.1626 43.1429 77.1233 43.2558 77.0645 43.3686C75.024 47.3809 72.7333 52.5164 72.8069 53.4975C72.7481 53.5563 73.2631 54.6011 74.4059 54.8071C75.1172 54.9346 77.9229 54.9003 81.3122 49.132C81.6163 48.617 82.1265 48.4845 82.6366 48.7886H82.6317Z" fill="white"/>
<path d="M107.843 48.7445C108.359 49.0486 108.491 49.5538 108.187 50.0688C105.352 54.8905 102.728 56.8819 99.3529 56.8819C96.5423 56.8819 94.5656 54.3117 92.9616 51.0842L87.7966 56.5778C87.5759 56.8133 87.3993 56.8819 87.0903 56.8819C86.8058 56.8819 86.644 56.8231 86.4281 56.6171C85.9916 56.2099 85.9769 55.6851 86.384 55.2486L92.0885 49.181C91.5882 48.0186 91.1174 46.8217 90.6661 45.6641L90.2246 44.5409C89.9794 43.918 89.4055 43.4078 88.812 43.4078C87.3993 43.4078 85.8199 45.8505 84.3435 48.1265C83.9315 48.7641 83.4999 49.4312 83.0388 50.1081C82.7052 50.6035 82.1902 50.7016 81.6948 50.3681C81.1994 50.0345 81.1013 49.5195 81.4348 49.0241C81.891 48.3521 82.3128 47.6948 82.7151 47.0768C84.7654 43.913 86.3399 41.4753 88.8071 41.4753C90.2884 41.4753 91.4068 42.2846 92.0199 43.8297L92.4662 44.9676C92.7851 45.777 93.1431 46.6991 93.5404 47.6409L99.0488 41.7843C99.4608 41.3477 99.9807 41.333 100.417 41.7401C100.854 42.1472 100.869 42.6721 100.461 43.1086L94.3988 49.5587C95.7526 52.3938 97.435 54.9494 99.3529 54.9494C100.358 54.9494 103.076 54.9493 106.519 49.0878C106.823 48.5728 107.328 48.4404 107.843 48.7445Z" fill="white"/>
<path d="M47.7817 77.7184C47.6738 77.7184 47.61 77.689 47.5414 77.6056C47.4482 77.4928 47.4383 77.3947 47.5021 77.2623L53.8688 64.7888C53.9571 64.6171 54.119 64.5632 54.2907 64.6515C54.4623 64.7398 54.5163 64.9016 54.428 65.0733L48.4194 76.8503C50.0331 76.2518 54.1288 74.486 57.1503 71.2095C59.2006 68.9875 59.902 66.4565 58.921 64.7005C58.0283 63.1064 55.8554 62.4638 53.2263 62.9789C49.3611 63.7391 48.1594 66.0396 47.8062 67.3002C47.3795 68.8207 47.7523 70.2432 48.3262 70.7729C48.4684 70.9054 48.4733 71.0721 48.3458 71.2144C48.2182 71.3566 48.0466 71.3615 47.9043 71.234C47.0312 70.4345 46.7418 68.7766 47.2029 67.1285C47.8896 64.6907 50.0086 62.9739 53.1036 62.3608C56.0516 61.782 58.4452 62.5668 59.4655 64.3915C60.574 66.3682 59.8775 69.1739 57.6114 71.6313C53.6481 75.9281 48.1103 77.6253 47.8749 77.6988C47.8406 77.7086 47.8209 77.7135 47.7866 77.7135L47.7817 77.7184Z" fill="white"/>
<path d="M59.7745 77.7577C59.4753 77.7577 59.2055 77.7234 58.9505 77.6498C58.1117 77.4144 57.5967 76.7963 57.5967 76.0508C57.5967 74.6577 59.1712 72.7252 60.7065 72.7252C61.4079 72.7252 61.9033 73.1568 61.9327 73.7699V73.8092C61.9327 74.3046 61.6188 74.9667 60.6623 75.4622C60.0443 75.781 59.0878 76.1145 58.2245 76.0949C58.2343 76.6737 58.7592 76.9484 59.1172 77.0465C60.8046 77.5174 62.4821 76.0802 63.1933 75.0452C63.3061 74.8883 63.4729 74.8539 63.6299 74.9668C63.7868 75.0747 63.8211 75.2414 63.7083 75.4033C62.6047 76.9974 61.1136 77.7577 59.7696 77.7577H59.7745ZM60.3729 74.9079C61.1185 74.5204 61.3049 73.9808 61.3049 73.7994C61.3049 73.7258 61.2853 73.353 60.7065 73.353C59.7255 73.353 58.6218 74.5204 58.3275 75.4671C59.0338 75.4671 59.8824 75.1581 60.3729 74.903V74.9079Z" fill="white"/>
<path d="M65.1455 77.7675C65.1111 77.7675 65.0915 77.7675 65.0572 77.7528C64.9198 77.7136 64.8414 77.6106 64.8365 77.4683L64.6795 73.9416L63.6543 75.5259C63.5513 75.6878 63.3846 75.7221 63.2227 75.6191C63.0608 75.5161 63.0265 75.3493 63.1295 75.1875L64.6893 72.7791C64.7678 72.6565 64.8904 72.6074 65.0327 72.6467C65.1749 72.6859 65.2583 72.7889 65.2632 72.9361L65.4251 76.556L68.0934 72.9115C68.1964 72.7693 68.3436 72.7399 68.4956 72.8233C68.6477 72.9066 68.7016 73.0489 68.6379 73.2107C68.1326 74.5302 68.4466 75.4916 68.9714 75.7466C69.4079 75.9625 69.9818 75.6927 70.2958 75.1777C70.3988 75.0109 70.5606 74.9717 70.7274 75.0698C70.8942 75.1679 70.9334 75.3346 70.8353 75.5014C70.3301 76.3402 69.4276 76.6639 68.7016 76.3058C68.1375 76.0311 67.7599 75.4425 67.7451 74.4566L65.4103 77.6449C65.3417 77.7381 65.273 77.7724 65.1602 77.7724L65.1455 77.7675Z" fill="white"/>
<path d="M72.3019 77.7577C72.0026 77.7577 71.7329 77.7234 71.4778 77.6498C70.6391 77.4144 70.124 76.7963 70.124 76.0508C70.124 74.6577 71.6985 72.7252 73.2338 72.7252C73.9352 72.7252 74.4306 73.1568 74.4601 73.7699V73.8092C74.4601 74.3046 74.1461 74.9667 73.1897 75.4622C72.5716 75.781 71.6151 76.1145 70.7519 76.0949C70.7617 76.6737 71.2865 76.9484 71.6446 77.0465C73.3319 77.5174 75.0094 76.0802 75.7207 75.0452C75.8335 74.8883 76.0002 74.8539 76.1572 74.9668C76.3142 75.0747 76.3485 75.2414 76.2357 75.4033C75.132 76.9974 73.6409 77.7577 72.297 77.7577H72.3019ZM72.9003 74.9079C73.6458 74.5204 73.8322 73.9808 73.8322 73.7994C73.8322 73.7258 73.8126 73.353 73.2338 73.353C72.2528 73.353 71.1492 74.5204 70.8549 75.4671C71.5612 75.4671 72.4098 75.1581 72.9003 74.903V74.9079Z" fill="white"/>
<path d="M76.0396 77.0318C75.608 76.3107 75.6178 75.0697 76.0887 73.25C76.432 71.9305 77.0157 70.4002 77.5847 69.3407C79.6644 65.451 82.6957 62.1646 83.7896 62.3952C84.0397 62.4491 84.182 62.611 84.2016 62.8955C84.3242 64.4798 82.0287 67.6877 79.8214 70.6258C79.689 70.7975 79.5712 70.9544 79.4682 71.0918C78.2174 72.7693 77.2806 73.922 76.4075 74.8441C76.3094 75.6093 76.3388 76.3058 76.5792 76.708C76.6675 76.8552 76.8637 77.0661 77.261 77.0661C78.5853 77.0661 79.5712 75.4965 79.7429 75.2022C79.841 75.0354 80.0029 74.9913 80.1697 75.0894C80.3364 75.1875 80.3806 75.3493 80.2825 75.5161C79.9734 76.0458 78.8796 77.689 77.261 77.689C76.6969 77.689 76.3094 77.4781 76.0396 77.0268V77.0318ZM77.2463 72.9361C77.7564 72.3131 78.3205 71.5872 78.9679 70.719C79.0709 70.5817 79.1886 70.4247 79.3211 70.2481C80.4934 68.6883 83.6179 64.5338 83.5786 63.0377C83.1078 63.0721 80.513 65.1959 78.139 69.635C77.6926 70.4688 76.8735 72.7055 76.5301 73.8337L77.2463 72.941V72.9361Z" fill="white"/>
<path d="M92.9129 75.0697C93.0797 75.1678 93.1189 75.3346 93.0208 75.4965C92.0839 77.0661 90.5781 77.9146 88.8761 77.9146C88.3905 77.9146 87.9049 77.846 87.4046 77.6988C87.277 77.6792 87.1593 77.64 87.0416 77.5811C86.8944 77.5075 86.6688 77.3604 86.5216 77.0612C84.697 81.0293 82.2543 86.2434 81.4646 87.5236C80.7779 88.6419 80.1598 89 79.6546 89C79.478 89 79.3505 88.9608 79.2132 88.8774C78.242 88.2888 78.6442 85.9785 80.4345 82.9717C82.4358 79.6118 85.4622 76.3598 86.7718 75.0158C86.8061 74.9422 86.8405 74.8686 86.8699 74.8C85.8693 75.5063 84.6381 75.9526 83.613 75.9526C83.5835 76.0262 83.5492 76.1047 83.5149 76.1783C83.0783 77.1642 82.2494 77.7626 81.337 77.7626C80.5228 77.7626 79.6939 77.174 79.6939 75.8889C79.6939 74.0103 81.1359 72.681 82.3867 72.681C82.5584 72.681 82.7105 72.7006 82.8674 72.7497C83.3089 72.8821 83.6032 73.1372 83.7896 73.5394C84.0054 74.0152 84.025 74.6038 83.8288 75.3101C84.9226 75.2218 86.4628 74.5547 87.3898 73.505C87.4242 73.4658 87.4634 73.4364 87.5026 73.4167C87.8705 72.6074 88.1011 72.1022 88.1109 72.0777C88.1894 71.9011 88.3512 71.8422 88.5278 71.9207C88.7044 71.9992 88.7632 72.1611 88.6848 72.3327C88.6455 72.4259 88.4444 72.8674 88.1305 73.5541C88.93 72.8281 89.7982 72.5633 90.377 72.8576C90.6664 73.0047 91.2207 73.4364 90.8528 74.7901C90.6124 75.6681 90.0189 76.3401 89.5677 76.7914C89.3764 76.9827 89.1802 77.1446 88.9791 77.277C90.4015 77.2279 91.7112 76.4726 92.4862 75.1727C92.5843 75.006 92.751 74.9667 92.9178 75.0648L92.9129 75.0697ZM85.9478 76.8159C84.4763 78.4297 82.426 80.8626 80.9741 83.2955C78.9777 86.6407 79.1837 88.176 79.5712 88.3574C79.5958 88.4212 80.2334 88.3427 80.9348 87.1999C81.7049 85.954 84.128 80.7645 85.9478 76.8159ZM81.337 77.1397C81.8521 77.1397 82.5829 76.7423 82.9459 75.9281C82.9508 75.9134 82.9606 75.8987 82.9655 75.8791C82.4309 75.7515 82.0728 75.4621 81.8766 75.0207C81.7981 74.8441 81.8619 74.6871 82.0385 74.6087C82.215 74.5302 82.372 74.594 82.4505 74.7705C82.4848 74.849 82.6271 75.1727 83.1813 75.2856C83.3579 74.6871 83.3824 74.1525 83.2206 73.8042C83.1225 73.5884 82.9214 73.4216 82.6859 73.353C82.5976 73.3285 82.4848 73.3088 82.3867 73.3088C81.5529 73.3088 80.3217 74.3438 80.3217 75.8889C80.3217 76.6197 80.7239 77.1397 81.337 77.1397ZM87.0318 76.1194C87.0023 76.345 86.9827 76.8503 87.3261 77.0219C87.7038 77.2083 88.4984 76.9778 89.1213 76.35C89.5284 75.9428 90.0484 75.3493 90.2446 74.6234C90.4113 74.0053 90.3083 73.5296 90.0876 73.4167C89.7884 73.2647 88.8908 73.5001 88.0569 74.5449C88.0079 74.6038 87.9539 74.6724 87.9 74.7509C87.8901 74.7705 87.8754 74.7852 87.8607 74.8049C87.6351 75.1188 87.3604 75.5455 87.0808 76.0017L87.0318 76.1145V76.1194Z" fill="white"/>
<path d="M93.6682 77.6498C92.8295 77.4144 92.3145 76.7963 92.3145 76.0508C92.3145 74.6577 93.889 72.7252 95.4243 72.7252C96.1257 72.7252 96.6211 73.1568 96.6505 73.7699V73.8092C96.6505 74.3046 96.3366 74.9667 95.3801 75.4622C94.7621 75.781 93.8056 76.1145 92.9472 76.0949C92.957 76.6737 93.4819 76.9484 93.8399 77.0465C95.5273 77.5174 97.2048 76.0802 97.916 75.0452C98.0239 74.8883 98.1907 74.8539 98.3525 74.9668C98.5095 75.0747 98.5438 75.2414 98.431 75.4033C97.3274 76.9974 95.8363 77.7577 94.4923 77.7577C94.1931 77.7577 93.9233 77.7234 93.6682 77.6498ZM95.0956 74.9079C95.8412 74.5204 96.0276 73.9808 96.0276 73.7994C96.0276 73.7258 96.0079 73.353 95.4291 73.353C94.4481 73.353 93.3445 74.5204 93.0502 75.4671C93.7565 75.4671 94.6051 75.1581 95.0956 74.903V74.9079Z" fill="white"/>
<path d="M101.06 77.8558C100.511 77.8558 100.118 77.6203 99.8877 77.1544C99.5443 76.4529 99.7258 75.4965 100.422 74.3683L100.584 74.0789L99.5983 73.2009C99.2108 73.9514 98.9116 74.6577 98.4309 75.4033C98.3279 75.5651 98.1611 75.6044 97.9993 75.4965C97.8374 75.3935 97.7982 75.2267 97.9061 75.0648C98.5241 74.1034 98.9557 73.093 99.3089 72.3573C99.3825 72.2052 99.4463 72.0679 99.5002 71.9599C99.5787 71.7981 99.7258 71.7392 99.8926 71.8079C100.059 71.8717 100.133 72.0139 100.079 72.1905C100.005 72.4455 100.035 72.7251 100.167 72.936C100.354 73.2352 100.761 73.4609 101.217 73.5345C101.344 73.5541 101.413 73.608 101.457 73.7307C101.506 73.8484 101.492 73.9367 101.413 74.0348C100.437 75.2856 100.202 76.3843 100.442 76.8797C100.501 76.9974 100.668 77.2279 101.05 77.2279C102.105 77.2279 103.199 75.7417 103.522 75.1973C103.62 75.0305 103.782 74.9863 103.949 75.0844C104.116 75.1825 104.16 75.3444 104.062 75.5112C103.915 75.7613 102.644 77.8509 101.05 77.8509L101.06 77.8558Z" fill="white"/>
<path d="M109.816 75.0894C109.982 75.1826 110.031 75.3444 109.938 75.5161C109.497 76.3205 108.869 76.7424 108.138 76.7424H108.113C107.716 76.7375 107.353 76.6099 107.059 76.3745C107 76.6001 106.902 76.8159 106.769 77.0072C106.441 77.483 105.985 77.7234 105.391 77.7234C104.842 77.7234 104.405 77.3849 104.317 76.8993C104.238 76.4775 104.454 76.041 104.773 75.9183C104.955 75.8497 105.107 75.9183 105.18 76.0949C105.254 76.2862 105.166 76.4481 104.95 76.5609C104.925 76.5952 104.91 76.7914 104.979 76.9091C105.048 77.0269 105.234 77.0955 105.391 77.0955C105.739 77.0955 106.063 76.9288 106.254 76.6541C106.514 76.2715 106.563 75.6633 106.372 75.1728C106.142 74.5743 105.73 73.5492 105.607 73.2353C105.161 73.819 104.523 74.8098 104.082 75.5259C103.979 75.6927 103.817 75.7319 103.65 75.6289C103.483 75.5259 103.444 75.3591 103.547 75.2022C104.234 74.1231 105.426 72.4063 105.44 72.3916C105.519 72.2837 105.602 72.2445 105.735 72.2641C105.867 72.2837 105.941 72.3377 105.985 72.4701C105.99 72.4848 106.613 74.0544 106.956 74.952C107.02 75.1139 107.064 75.2758 107.088 75.4376C107.098 75.4523 107.108 75.4671 107.118 75.4818C107.304 75.8447 107.721 76.1096 108.118 76.1145H108.133C108.609 76.1145 109.08 75.7663 109.384 75.212C109.477 75.0452 109.639 74.9962 109.811 75.0894H109.816Z" fill="white"/>
</svg>
